<?xml version="1.0" encoding="UTF-8" standalone="no"?>
<svg
   xmlns:dc="http://purl.org/dc/elements/1.1/"
   xmlns:cc="http://creativecommons.org/ns#"
   xmlns:rdf="http://www.w3.org/1999/02/22-rdf-syntax-ns#"
   xmlns:svg="http://www.w3.org/2000/svg"
   xmlns="http://www.w3.org/2000/svg"
   id="svg2334"
   version="1.1"
   viewBox="0 0 90 90"
   height="90mm"
   width="90mm">
  <defs
     id="defs2328" />
  <metadata
     id="metadata2331">
    <rdf:RDF>
      <cc:Work
         rdf:about="">
        <dc:format>image/svg+xml</dc:format>
        <dc:type
           rdf:resource="http://purl.org/dc/dcmitype/StillImage" />
        <dc:title></dc:title>
      </cc:Work>
    </rdf:RDF>
  </metadata>
  <g
     transform="translate(0,-207)"
     id="layer1">
    <g
       id="g5116"
       transform="matrix(0.35277777,0,0,-0.35277777,8.2392324,334.53778)">
      <path
         id="path498"
         style="fill:#28292a;fill-opacity:1;fill-rule:nonzero;stroke:none;stroke-width:0.1"
         d="m 54.2969,243.22 c 0,0 13.5097,1.87 26.5793,0 13.0695,-1.86 14.8316,-2.6 14.8316,-2.6 0,0 -0.7344,6.02 -1.7621,6.91 -1.0281,0.88 -3.5242,2.05 -6.3144,1.61 -2.7903,-0.44 -17.0344,-2.35 -22.6145,-2.64 -5.5805,-0.3 -9.3984,-1.08 -10.7199,-1.57 -1.3219,-0.49 0,-1.71 0,-1.71" />
      <path
         id="path500"
         style="fill:#28292a;fill-opacity:1;fill-rule:nonzero;stroke:none;stroke-width:0.1"
         d="m 122.434,245.91 c 0,0 12.629,-1.76 14.097,-1.76 1.469,0 16.154,0.29 19.238,0 l 0.734,0.88 c 0,0 -7.93,2.39 -13.07,4.21 -5.139,1.81 -14.538,4.01 -17.034,4.16 -2.496,0.15 -3.671,-1.03 -3.965,-2.35 -0.294,-1.32 -0.881,-4.26 0,-5.14" />
      <path
         id="path502"
         style="fill:#28292a;fill-opacity:1;fill-rule:nonzero;stroke:none;stroke-width:0.1"
         d="m 166.338,212.21 c -4.677,-25.58 -31.53,-20.28 -38.764,-14.91 -7.234,5.37 -9.536,18.08 -9.865,24.22 -0.329,6.14 7.124,13.81 21.812,14.91 14.687,1.1 24.88,-3.84 27.401,-6.69 2.521,-2.85 0.329,-12.54 -0.584,-17.53 z M 86.727,197.3 c -7.234,-5.37 -34.0875,-10.67 -38.7641,14.91 -0.9133,4.99 -3.1055,14.68 -0.5848,17.53 2.5211,2.85 12.7145,7.79 27.402,6.69 14.6871,-1.1 22.1402,-8.77 21.8117,-14.91 -0.3289,-6.14 -2.6309,-18.85 -9.8648,-24.22 z m 89.833,37.88 c -4.315,2.49 -17.859,9.08 -36.966,6.69 -15.723,-1.96 -24.97,-5.32 -29.342,-7.3 -0.989,-0.45 -2.045,-0.68 -3.102,-0.68 -1.056,0 -2.113,0.23 -3.102,0.68 -4.371,1.98 -13.6183,5.34 -29.3414,7.3 -19.1066,2.39 -32.6515,-4.2 -36.9664,-6.69 -0.8882,-0.51 -1.3336,-1.54 -1.1199,-2.54 l 1.5043,-7.05 c 0.2699,-1.27 1.4996,-2.08 2.7688,-1.84 l 0.7855,0.15 c 0,0 2.2399,-12.46 4.7031,-19.43 4.1321,-11.7 15.9028,-16.67 28.7633,-15.21 12.8606,1.46 17.2449,6.29 21.4828,15.2 4.2379,8.92 5.1149,14.91 10.5219,15.05 5.407,-0.14 6.284,-6.13 10.522,-15.05 4.239,-8.91 8.623,-13.74 21.483,-15.2 12.861,-1.46 24.631,3.51 28.764,15.21 2.463,6.97 4.703,19.43 4.703,19.43 l 0.785,-0.15 c 1.269,-0.24 2.499,0.57 2.769,1.84 l 1.504,7.05 c 0.214,1 -0.232,2.03 -1.12,2.54" />
      <path
         id="path504"
         style="fill:#28292a;fill-opacity:1;fill-rule:nonzero;stroke:none;stroke-width:0.1"
         d="m 34.1156,229.45 c 0,0 -6.3879,-0.66 -5.2867,-8.81 1.1016,-8.15 6.666,-24.67 7.7387,-26.87 1.0722,-2.21 7.5961,-2.26 10.2226,-1.77 0,0 -8.0574,2.21 -9.0445,5.07 -0.9867,2.86 -11.1195,28.64 -3.6301,29.96 v 2.42" />
      <path
         id="path506"
         style="fill:#28292a;fill-opacity:1;fill-rule:nonzero;stroke:none;stroke-width:0.1"
         d="m 179.385,227.47 c 0,0 -5.507,-29.63 -6.829,-32.33 -1.321,-2.7 -7.149,-3.39 -7.149,-3.39 v -3.49 c 0,0 7.92,1.21 9.132,6.28 1.211,5.06 7.709,32.71 7.159,32.93 -0.551,0.22 -1.212,0.33 -2.313,0" />
      <path
         id="path508"
         style="fill:#28292a;fill-opacity:1;fill-rule:nonzero;stroke:none;stroke-width:0.1"
         d="m 99.8668,189.99 c -0.9914,-0.66 -0.0184,-2.56 2.2022,-4.41 1.983,-1.65 7.159,-2.64 11.454,3.41 0,0 -5.616,-3.87 -9.141,-1.55 -3.524,2.33 -3.194,3.43 -4.5152,2.55" />
      <path
         id="path510"
         style="fill:#28292a;fill-opacity:1;fill-rule:nonzero;stroke:none;stroke-width:0.1"
         d="m 111.068,159.31 c -1.275,0.34 -1.872,-1.11 -0.881,-1.66 0.991,-0.55 3.414,-0.55 7.489,0.83 4.075,1.38 9.032,4.24 9.472,5.45 0.441,1.21 -2.092,-1.21 -6.057,-2.64 -3.965,-1.43 -7.6,-2.65 -10.023,-1.98" />
      <path
         id="path512"
         style="fill:#28292a;fill-opacity:1;fill-rule:nonzero;stroke:none;stroke-width:0.1"
         d="m 167.51,311.83 c -6.093,13.33 -17.39,20.34 -28.531,23.98 -10.575,4.96 -23.951,7.44 -40.7724,6.13 C 15.7043,335.47 37.6652,240.97 37.6652,240.97 l 1.5508,0.02 c -0.0129,0.07 -0.0269,0.14 -0.0406,0.21 l 7.6148,1.19 c 0,0 -8.1929,87.02 60.3598,57.99 68.554,29.03 60.36,-57.99 60.36,-57.99 l 9.125,-1.42 c 3.229,17.22 5.58,38.7 -9.125,70.86" />
      <path
         id="path514"
         style="fill:#28292a;fill-opacity:1;fill-rule:nonzero;stroke:none;stroke-width:0.1"
         d="m 50.0566,191.13 c 0,0 -2.7531,-21.68 -2.8632,-26.96 -0.1102,-5.29 30.2875,-31.94 33.8117,-35.91 3.5242,-3.96 8.7918,-4.62 27.0289,-4.84 18.237,-0.22 21.431,0.44 26.057,4.84 4.625,4.41 21.146,21.04 24.67,24.34 3.524,3.31 7.049,4.22 7.049,9.6 0,5.38 -0.661,17.72 -2.203,29.72 0,0 0.437,-0.85 -3.087,-3.66 0,0 0.768,-6.17 2.564,-24.73 0.167,-1.73 -0.443,-3.45 -1.675,-4.69 -5.475,-5.47 -20.941,-20.86 -25.446,-24.74 -5.507,-4.73 -6.939,-7.38 -13.327,-7.71 -6.388,-0.33 -24.4497,0.33 -29.5161,0.22 -5.0664,-0.11 -6.7183,0.33 -8.9211,1.76 -2.2027,1.44 -25.1109,23.68 -29.5164,30.07 -4.4054,6.39 -4.798,4.58 -3.8066,14.16 0.991,9.58 1.2734,12.42 2.0445,15.76 0,0 0.1102,-0.56 -2.8637,2.77" />
      <path
         id="path516"
         style="fill:#28292a;fill-opacity:1;fill-rule:nonzero;stroke:none;stroke-width:0.1"
         d="m 77.975,221.26 -5.5129,-5.26 2.2399,7.26 c -0.7133,0.22 -1.4551,0.37 -2.2399,0.37 -4.2176,0 -7.6363,-3.42 -7.6363,-7.63 0,-4.22 3.4187,-7.64 7.6363,-7.64 4.2172,0 7.6356,3.42 7.6356,7.64 0,2.04 -0.8149,3.89 -2.1227,5.26" />
      <path
         id="path518"
         style="fill:#28292a;fill-opacity:1;fill-rule:nonzero;stroke:none;stroke-width:0.1"
         d="m 145.819,221.26 -5.513,-5.26 2.24,7.26 c -0.714,0.22 -1.455,0.37 -2.24,0.37 -4.218,0 -7.636,-3.42 -7.636,-7.63 0,-4.22 3.418,-7.64 7.636,-7.64 4.217,0 7.635,3.42 7.635,7.64 0,2.04 -0.814,3.89 -2.122,5.26" />
    </g>
  </g>
</svg>
